<?xml version="1.0" encoding="UTF-8" standalone="no"?><!DOCTYPE svg PUBLIC "-//W3C//DTD SVG 1.1//EN" "http://www.w3.org/Graphics/SVG/1.1/DTD/svg11.dtd"><svg xmlns="http://www.w3.org/2000/svg" version="1.1" width="278" height="112"><path fill="none" stroke="#000000" stroke-width="2" stroke-linecap="round" stroke-linejoin="round" d="M 1 85 c 0.37 -0.19 14.34 -6.76 21 -11 c 8.03 -5.11 15.26 -10.98 23 -17 c 4.61 -3.58 8.36 -7.69 13 -11 c 7.11 -5.08 14.99 -10.49 22 -14 c 2.17 -1.08 5.33 -1 8 -1 c 6.96 0 14.01 0.46 21 1 c 1.69 0.13 5.36 0.62 5 1 c -3.83 4.05 -33.83 33.53 -40 36 c -2.14 0.86 -2.81 -12.34 -5 -18 c -1.73 -4.48 -7.48 -13.29 -7 -13 c 1.32 0.8 19.29 19.86 30 27 c 11.51 7.67 25.44 13.6 39 19 c 21.15 8.42 42.55 16.27 64 22 c 11.83 3.16 24.51 4.24 37 5 c 15.05 0.92 42 0.6 45 0 c 0.81 -0.16 -6.49 -5.02 -10 -7 c -4.11 -2.33 -8.46 -4.51 -13 -6 c -16.86 -5.53 -33.46 -10.46 -51 -15 c -11.45 -2.96 -22.31 -4.29 -34 -7 c -21.16 -4.9 -40.56 -9.38 -61 -15 c -6.59 -1.81 -19.4 -6.2 -19 -7 c 0.45 -0.91 15.23 -1.35 23 -1 c 30.09 1.34 58.49 4.39 89 6 c 8.55 0.45 16.61 0.51 25 0 c 8.12 -0.5 16.34 -1.68 24 -3 c 1.71 -0.29 5 -1.45 5 -2 c 0 -0.6 -3.3 -2.7 -5 -3 c -5.26 -0.91 -12.18 -1.34 -18 -1 c -5.25 0.31 -10.76 1.52 -16 3 c -10.19 2.88 -19.78 6.32 -30 10 c -6.96 2.51 -13.55 6.48 -20 8 c -4.19 0.99 -9.4 -0.37 -14 0 c -3.68 0.29 -7.69 0.97 -11 2 c -1.72 0.54 -3.65 1.82 -5 3 c -1.15 1.01 -3.19 4 -3 4 c 0.27 0 4.2 -2.41 6 -4 c 12.2 -10.75 23.59 -22.36 36 -33 c 4.02 -3.45 8.79 -5.67 13 -9 c 8.7 -6.87 16.93 -13.6 25 -21 l 11 -12"></path></svg>