<?xml version="1.0" encoding="UTF-8" standalone="no"?><!DOCTYPE svg PUBLIC "-//W3C//DTD SVG 1.1//EN" "http://www.w3.org/Graphics/SVG/1.1/DTD/svg11.dtd"><svg xmlns="http://www.w3.org/2000/svg" version="1.1" width="455" height="161"><path fill="none" stroke="#000000" stroke-width="2" stroke-linecap="round" stroke-linejoin="round" d="M 1 155 c 0.12 -0.28 4.26 -10.81 7 -16 c 3.66 -6.93 7.67 -13.5 12 -20 c 2.38 -3.57 4.9 -7.33 8 -10 c 6.24 -5.38 13.76 -11.02 21 -15 c 5.68 -3.12 12.67 -6.07 19 -7 c 13.14 -1.94 28.33 -2.23 42 -2 c 5.61 0.1 11.74 1.09 17 3 c 16.25 5.91 35.99 14.62 49 21 c 1.09 0.53 2.26 2.91 2 4 c -0.82 3.49 -2.99 10.51 -6 13 c -5.36 4.44 -15.45 7.76 -23 11 c -1.51 0.65 -3.42 1 -5 1 c -1.88 0 -5.82 -0.12 -6 -1 c -0.28 -1.42 1.87 -7.36 4 -9 c 5.33 -4.1 14.65 -8.86 22 -11 c 7.82 -2.28 17.19 -2.55 26 -3 c 11.11 -0.57 22.02 -0.95 33 0 c 16.13 1.39 31.69 4.2 48 7 c 7.59 1.3 14.59 2.92 22 5 c 12.04 3.38 29.76 8.05 35 11 c 1.09 0.61 -1.57 5.21 -3 7 c -2.26 2.83 -5.68 6.7 -9 8 c -9.11 3.55 -21.63 6.6 -32 8 c -6.29 0.85 -13.87 0.68 -20 -1 c -17.23 -4.72 -35.95 -11.69 -53 -19 c -8.42 -3.61 -16.95 -8.52 -24 -14 c -7.53 -5.86 -14.38 -13.85 -21 -21 c -1.61 -1.74 -3.09 -3.99 -4 -6 c -0.65 -1.42 -1.85 -4.41 -1 -5 c 5 -3.46 17.84 -9.89 27 -13 c 9.05 -3.07 19.21 -5.14 29 -6 c 24.15 -2.13 47.77 -2.29 73 -3 c 11.39 -0.32 21.88 -0.64 33 0 c 12.21 0.71 24.11 2.34 36 4 c 2.39 0.33 6.75 1.38 7 2 c 0.2 0.49 -3.24 2.29 -5 3 c -4.78 1.91 -9.82 3.75 -15 5 c -14.4 3.48 -28.37 6.69 -43 9 c -11.03 1.74 -21.74 2.74 -33 3 c -33.64 0.76 -65 0.51 -99 0 c -11.7 -0.18 -22.44 -0.95 -34 -2 c -7.2 -0.65 -21.8 -2.66 -21 -3 c 2.36 -1 41.21 -7.4 61 -14 c 35.35 -11.78 68.31 -26.32 104 -41 c 18.87 -7.76 35.76 -20.01 54 -24 c 35.72 -7.82 96.85 -20.48 115 -13 c 9.75 4.01 3.9 59.24 4 62 c 0.01 0.2 -1.02 -3.32 -2 -4 l -8 -3"></path></svg>